<svg width="21" height="18" viewBox="0 0 21 18" fill="none" xmlns="http://www.w3.org/2000/svg">
<path d="M20.667 2.79699C19.9181 3.12896 19.1235 3.34672 18.31 3.44299C19.1671 2.93061 19.8084 2.12369 20.114 1.17299C19.3084 1.65105 18.4271 1.9879 17.508 2.16899C17.1242 1.75926 16.6604 1.43278 16.1451 1.20984C15.6299 0.986895 15.0744 0.872239 14.513 0.87299C11.864 0.87299 9.918 3.34499 10.516 5.91099C8.88456 5.82935 7.28853 5.40549 5.83156 4.66693C4.37459 3.92836 3.08924 2.89161 2.059 1.62399C1.53474 2.52746 1.37426 3.59669 1.61017 4.61426C1.84608 5.63184 2.46068 6.52137 3.329 7.10199C2.67736 7.08207 2.03995 6.90652 1.47 6.58999C1.425 8.49099 2.787 10.27 4.76 10.665C4.15572 10.8291 3.52194 10.853 2.907 10.735C3.1689 11.5506 3.67935 12.2639 4.36685 12.775C5.05436 13.286 5.8845 13.5693 6.741 13.585C5.02117 14.9341 2.83625 15.5455 0.666 15.285C2.54228 16.4904 4.72589 17.1302 6.956 17.128C14.574 17.128 18.878 10.694 18.618 4.92299C19.4213 4.34211 20.1148 3.62289 20.666 2.79899L20.667 2.79699Z" fill="#F25F3A"/>
</svg>
